# xmcd
#
# Track frame offsets: 
#        150
#        14182
#        26805
#        41907
#        50447
#        64265
#        79465
#        90112
#        100965
#        115335
#        130370
#        144150
#
# Disc length: 2128 seconds
#
# Revision: 0
# Processed by: cddbd v1.5.2PL0 Copyright (c) Steve Scherf et al.
# Submitted via: ExactAudioCopy v0.99pb4
#
DISCID=a9084e0c
DTITLE=Crustacean - Insaniac
DYEAR=2003
DGENRE=Death Metal
TTITLE0=Arena
TTITLE1=Random Terror
TTITLE2=Psycho 2001
TTITLE3=Satanizer
TTITLE4=Deathtrap
TTITLE5=Soulsucker
TTITLE6=Bloodshot
TTITLE7=Lost (Head)
TTITLE8=Penance
TTITLE9=Redeemer
TTITLE10=Foul Usurper
TTITLE11=State Necropolis
EXTD=
EXTT0=
EXTT1=
EXTT2=
EXTT3=
EXTT4=
EXTT5=
EXTT6=
EXTT7=
EXTT8=
EXTT9=
EXTT10=
EXTT11=
PLAYORDER=
